# xmcd
#
# Track frame offsets:
#	183
#	19983
#	39525
#	59308
#	74363
#	92130
#	112823
#	132353
#	151983
#	170548
#	187615
#	204193
#
# Disc length: 2992 seconds
# Revision: 2
# Processed by: cddbd v1.5.2PL0 Copyright (c) Steve Scherf et al.
# Submitted via: dBpowerAMP V12.0
#
DISCID=970bae0c
DTITLE=鄺美雲 - 心聲 [dBP]
DYEAR=1988
DGENRE=Chinese Pop
TTITLE0=心聲
TTITLE1=心傷
TTITLE2=留下陪我
TTITLE3=再坐一會
TTITLE4=未曾深愛已無情
TTITLE5=冰凍的女人
TTITLE6=纏綿以後
TTITLE7=傷心的我
TTITLE8=離別的搖籃曲
TTITLE9=長夜抱琴
TTITLE10=Tonight
TTITLE11=堆積情感
EXTD=
EXTT0=
EXTT1=
EXTT2=
EXTT3=
EXTT4=
EXTT5=
EXTT6=
EXTT7=
EXTT8=
EXTT9=
EXTT10=
EXTT11=
PLAYORDER=
